<svg viewBox="0 0 335 90"
    xmlns="http://www.w3.org/2000/svg">
    <!-- Simple rectangle -->
    <g color="black">
        <!-- Border -->
        <path d="M 0 0 h 335 v 90 h -335 v -90 m 5 5 v 80 h 325 v -80 h -325" fill="currentcolor" class=""/>
        <!-- S -->
        <!-- horizontals -->
        <path d="M 20 20 h 40 v 10 h -30 v 10 h 30 v 30 h -40 v -10 h 30 v -10 h -30 v -30" fill="currentcolor" class="" />
        <!-- P -->
        <path d="M 70 20 h 40 v 30 h -30 v 20 h -10 v -50 m 10 10 v 10 h 20 v -10 h -20" fill="currentcolor" class="" />
        <!-- T -->
        <path d="M 120 20 h 40 v 10 h -15 v 40 h -10 v -40 h -15 v -10" fill="currentcolor" class="" />
        <!-- I -->
        <path d="M 165 20 h 10 v 50 h -10 v -90" fill="currentcolor" class="" />
        <!-- M -->
        <path d="M 180 20 h 10 l 5 5 l 5 -5 h 10 v 50 h -10 v -36 l -5 5 l -5 -5 v 36 h -10 v -50" fill="currentcolor" class="" />
        <!-- M -->
        <path d="M 215 20 h 10 l 5 5 l 5 -5 h 10 v 50 h -10 v -36 l -5 5 l -5 -5 v 36 h -10 v -50" fill="currentcolor" class="" />
        <!-- E -->
        <path d="M 250 20 h 30 v 10 h -20 v 10 h 10 v 10 h -10 v 10 h 20 v 10 h -30 v -50" fill="currentcolor" class="" />
        <!-- R -->
        <path d="M 285 20 h 30 v 30 h -10 l 10 20 h -10 l -10 -20 v 20 h -10 v -50 m 10 10 v 10 h 10 v -10 h -10" fill="currentcolor" class="" />
    </g>
</svg>